<svg width="447" height="456" viewBox="0 0 447 456" fill="none" xmlns="http://www.w3.org/2000/svg">
<path d="M414.011 366.322L344.752 348.934L339.665 273.352L433.837 296.994L394.856 324.117L414.011 366.322Z" fill="#C42635"/>
<path d="M339.877 273.708L339.665 296.032L385.404 305.219L339.877 273.708Z" fill="#8E1C2D"/>
<path d="M32.9883 366.322L101.831 349.039L107.334 273.352L13.1628 296.994L52.1434 324.117L32.9883 366.322Z" fill="#C42635"/>
<path d="M107.122 273.352V296.032L61.3829 305.219L107.122 273.352Z" fill="#8E1C2D"/>
<path d="M6.66782 121.521C-9.27001 94.8858 4.35794 73.4053 36.951 73.4053H410.048C442.641 73.4053 456.269 94.8858 440.333 121.521L259.84 435.367C243.906 462.004 203.095 462.082 187.159 435.447L6.66782 121.521Z" fill="#1A171E"/>
<path d="M6.66782 121.521C-9.27001 94.8858 4.35794 73.4053 36.951 73.4053H223.316L223.254 455.5C209.15 455.424 195.081 448.766 187.159 435.524L6.66782 121.521Z" fill="#2E2935"/>
<g opacity="0.3">
<path d="M223.5 443.18C212.977 443.18 203.593 438.041 198.398 429.434L17.8327 115.312C12.4352 106.292 11.3701 99.5592 14.6699 94.284C17.8254 89.2406 25.3207 87.2075 36.9525 87.2075H410.05C421.682 87.2075 429.179 89.2434 432.332 94.284C435.607 99.5192 434.477 107.046 429.155 115.944L248.62 429.708C243.475 438.226 234.086 443.18 223.5 443.18ZM37.0306 91.3482C26.9971 91.3482 20.7481 92.313 18.366 96.1224C15.8381 100.164 17.4173 105.912 22.0488 113.651L202.385 427.345C206.877 434.787 214.191 439.038 223.316 439.038C232.504 439.038 240.295 434.871 244.738 427.517L425.365 114.021C430.006 106.263 431.122 99.9622 428.564 95.8698C426.181 92.0577 420.159 91.3482 410.127 91.3482H37.0306Z" fill="white"/>
</g>
<path d="M224.336 9.47156L178.438 61.5132H224.336H270.236L224.336 9.47156Z" fill="#C12736"/>
<path d="M224.336 61.5131H178.438L224.336 10.0815V61.5131Z" fill="#D12A42"/>
<path d="M163.306 22.2345C168.266 22.2345 172.286 18.4675 172.286 13.8206C172.286 9.17376 168.266 5.40674 163.306 5.40674C158.346 5.40674 154.326 9.17376 154.326 13.8206C154.326 18.4675 158.346 22.2345 163.306 22.2345Z" fill="#FF3E51"/>
<path d="M294.017 13.8206C294.017 9.17339 289.997 5.40674 285.035 5.40674C280.075 5.40674 276.055 9.17339 276.055 13.8206C276.055 18.4679 280.075 22.2345 285.035 22.2345C289.997 22.2331 294.017 18.4679 294.017 13.8206Z" fill="#F23845"/>
<path d="M178.438 61.5131H224.336V50.9061L163.306 13.5156L178.438 61.5131Z" fill="#FF3E51"/>
<path d="M271.067 61.5131H224.336V50.9061L285.782 13.5156L271.067 61.5131Z" fill="#F23845"/>
<path d="M224.42 0.5C224.391 0.5 224.366 0.505516 224.336 0.508277C219.416 0.551064 215.44 4.29288 215.44 8.91113C215.44 13.5349 219.416 17.2767 224.336 17.3195C224.366 17.3195 224.391 17.3278 224.42 17.3278C229.38 17.3278 233.401 13.5597 233.401 8.91113C233.401 4.26665 229.38 0.5 224.42 0.5Z" fill="#C12736"/>
<path d="M215.44 8.91115C215.44 13.5349 219.416 17.2767 224.336 17.3195V0.508301C219.418 0.551088 215.44 4.2929 215.44 8.91115Z" fill="#D12A42"/>
<path d="M367.867 373.667C261.834 349.816 185.164 349.816 79.1327 373.667C73.2858 350.851 67.4389 328.037 61.595 305.219C179.155 278.777 267.845 278.777 385.406 305.219C379.56 328.036 373.714 350.851 367.867 373.667Z" fill="#F23845"/>
<path d="M135.716 195.802H136.467L160.509 135.137H186.355V139.264L141.725 243.329H130.305L85.2241 139.264V135.137H111.07L135.716 195.802Z" fill="white"/>
<path d="M254.472 218.113C254.472 227.127 254.472 232.783 254.472 242.105C236.593 242.105 219.013 242.105 201.13 242.105C201.13 232.783 201.13 227.127 201.13 218.113H214.503V158.973H202.182C202.182 149.806 202.182 144.152 202.182 135.136C219.313 135.136 236.294 135.136 253.421 135.136C253.421 144.15 253.421 149.806 253.421 158.973H241.101V218.113H254.472Z" fill="white"/>
<path d="M279.077 242.107C279.077 206.501 279.077 170.895 279.077 135.139C294.259 135.139 309.884 135.139 325.362 135.139C375.702 135.292 375.702 214.75 325.362 214.75H305.979V242.108C296.962 242.107 287.946 242.107 279.077 242.107ZM325.211 159.588C318.901 159.432 312.14 159.588 305.979 159.588C305.979 168.296 305.979 181.437 305.979 190.151H325.211C339.939 190.149 340.838 159.739 325.211 159.588Z" fill="white"/>
</svg>
